<svg id="esVARz2wkmT1" xmlns="http://www.w3.org/2000/svg" xmlns:xlink="http://www.w3.org/1999/xlink" viewBox="0 0 640 640" shape-rendering="geometricPrecision" text-rendering="geometricPrecision" style="background-color:rgba(255,255,255,0)"><defs><linearGradient id="esVARz2wkmT3-fill" x1="0.489361" y1="-0.00383" x2="0.49637" y2="0.706156" spreadMethod="pad" gradientUnits="objectBoundingBox" gradientTransform="translate(0 0)"><stop id="esVARz2wkmT3-fill-0" offset="0%" stop-color="#152055"/><stop id="esVARz2wkmT3-fill-1" offset="100%" stop-color="#0c0b33"/></linearGradient><linearGradient id="esVARz2wkmT4-fill" x1="0.205284" y1="-0.273163" x2="0.550399" y2="1.124969" spreadMethod="pad" gradientUnits="objectBoundingBox" gradientTransform="translate(0 0)"><stop id="esVARz2wkmT4-fill-0" offset="0%" stop-color="#2cdafa"/><stop id="esVARz2wkmT4-fill-1" offset="100%" stop-color="#002b55"/></linearGradient><linearGradient id="esVARz2wkmT5-fill" x1="0.215154" y1="0.780113" x2="0.756772" y2="0.270218" spreadMethod="pad" gradientUnits="objectBoundingBox" gradientTransform="translate(0 0)"><stop id="esVARz2wkmT5-fill-0" offset="0%" stop-color="#07103a"/><stop id="esVARz2wkmT5-fill-1" offset="100%" stop-color="#7e93ff"/></linearGradient><linearGradient id="esVARz2wkmT8-fill" x1="1.636801" y1="-0.552278" x2="0.401187" y2="0.886182" spreadMethod="pad" gradientUnits="objectBoundingBox" gradientTransform="translate(0 0)"><stop id="esVARz2wkmT8-fill-0" offset="0%" stop-color="#7e93ff"/><stop id="esVARz2wkmT8-fill-1" offset="100%" stop-color="#2d3a79"/></linearGradient></defs><g transform="translate(-42.159327 88.623402)"><ellipse rx="236.187196" ry="236.187196" transform="matrix(1.041057 0 0 1.041057 365.09482 214.948172)" fill="url(#esVARz2wkmT3-fill)" stroke-width="0"/><path d="M-289.230631,17.691864c0-41.934585,146.72516-79.925563,282.736679-79.925563c71.165785,0,79.280268,33.8122,112.894858,48.954408c30.629365,13.797468,91.32542,22.931798,91.32542,42.924803c0,41.934586-104.175262,47.990525-240.186781,47.990525s-246.770176-18.009587-246.770176-59.944173Z" transform="matrix(1 0 0-1 408.651894 430.249953)" fill="url(#esVARz2wkmT4-fill)" stroke-width="0"/><path d="M167.54705,66.547574c5.99317,9.33854,8.61623,13.18372,6.96699,14.83296s-8.85881,5.07631-16.73467-.96648c-19.94914-13.67941-33.35103-74.05855-65.62482-61.45161s16.870812,132.413851,64.690607,179.292928c49.476712,48.503399,71.467306,88.197416,47.893356,134.105946s-91.175367,56.0719-178.836295,34.560016-155.142865-92.174706-192.848658-153.47097c45.0791,12.66686,92.10564,7.40727,132.56973,7.47016-3.44755-4.86612-7.03977-9.78445-10.84177-14.72655-8.47317-11.01402-19.66934-20.15112-31.97509-27.54992c40.61014,1.72239,86.39745,3.08449,123.06741,8.70543c18.31675,2.80768,34.78075,8.7111,49.12945,16.14624-7.13383-10.97956-14.16993-22.88006-20.72163-35.37401-30.17144-57.53623-51.22128-142.43726-14.73489-178.22199s84.181011-17.380012,102.76444,16.49967s9.376559,48.018998.611629,49.816938q1.441135,4.49295,4.624211,10.331242Z" transform="translate(315.646961 44.479304)" fill="url(#esVARz2wkmT5-fill)" stroke-width="5" stroke-miterlimit="36" stroke-dasharray="2648.4"/><path style="isolation:isolate" d="M-172.029167,7.978511c13.642528-44.813079-18.901988-63.643736-6.726297-63.643736s36.109476,29.615062,39.836507,61.535164-.134792,50.165687-14.432377,47.737022-33.14949,4.651894-18.677833-45.62845Z" transform="matrix(.558809-.261874 0.228635 0.487882 551.934789 34.702925)" fill="#0a031b" stroke-width="0"/><path d="M407.475179,108.437143c-4.300322-7.112425-8.576655-18.785549-6.104093-25.026782s14.499741-14.319815,24.221405,9.236525s14.582496,24.491114,14.395541,31.595407-13.590165,11.05286-32.512853-15.80515Z" transform="translate(63.101045 16.934322)" fill="#ff518c" stroke-width="1.28"/><path d="M354.767411,287.339369c18.520077,13.644275,64.300979,44.149314,49.978488,75.523048s-62.603644,47.154916-144.984484,16.556318-152.665178-112.626078-168.769357-137.615322c139.939766,2.221266,185.564581,2.410323,263.775353,45.535956Z" transform="translate(54.090416 14.11876)" fill="url(#esVARz2wkmT8-fill)" stroke-width="1.28"/></g></svg>
